HIERARCHY
ROOT Hips
{
	OFFSET 0.000000 0.000000 0.000000
	CHANNELS 6 Xposition Yposition Zposition Zrotation Yrotation Xrotation 
	JOINT LHipJoint
	{
		OFFSET 0.000000 0.000000 0.000000
		CHANNELS 3 Zrotation Yrotation Xrotation
		JOINT LeftUpLeg
		{
			OFFSET 1.363060 -1.794630 0.839290
			CHANNELS 3 Zrotation Yrotation Xrotation
			JOINT LeftLeg
			{
				OFFSET 2.448110 -6.726130 0.000000
				CHANNELS 3 Zrotation Yrotation Xrotation
				JOINT LeftFoot
				{
					OFFSET 2.562200 -7.039590 0.000000
					CHANNELS 3 Zrotation Yrotation Xrotation
					JOINT LeftToeBase
					{
						OFFSET 0.157640 -0.433110 2.322550
						CHANNELS 3 Zrotation Yrotation Xrotation
						End Site
						{
							OFFSET 0.000000 0.000000 0.000000
						}
					}
				}
			}
		}
	}
	JOINT RHipJoint
	{
		OFFSET 0.000000 0.000000 0.000000
		CHANNELS 3 Zrotation Yrotation Xrotation
		JOINT RightUpLeg
		{
			OFFSET -1.305520 -1.794630 0.839290
			CHANNELS 3 Zrotation Yrotation Xrotation
			JOINT RightLeg
			{
				OFFSET -2.542530 -6.985550 0.000000
				CHANNELS 3 Zrotation Yrotation Xrotation
				JOINT RightFoot
				{
					OFFSET -2.568260 -7.056230 0.000000
					CHANNELS 3 Zrotation Yrotation Xrotation
					JOINT RightToeBase
					{
						OFFSET -0.164730 -0.452590 2.363150
						CHANNELS 3 Zrotation Yrotation Xrotation
						End Site
						{
							OFFSET 0.000000 0.000000 0.000000
						}
					}
				}
			}
		}
	}
	JOINT LowerBack
	{
		OFFSET 0.000000 0.000000 0.000000
		CHANNELS 3 Zrotation Yrotation Xrotation
		JOINT Spine
		{
			OFFSET 0.028270 2.035590 -0.193380
			CHANNELS 3 Zrotation Yrotation Xrotation
			JOINT Spine1
			{
				OFFSET 0.056720 2.048850 -0.042750
				CHANNELS 3 Zrotation Yrotation Xrotation
				JOINT Neck
				{
					OFFSET 0.000000 0.000000 0.000000
					CHANNELS 3 Zrotation Yrotation Xrotation
					JOINT Neck1
					{
						OFFSET -0.054170 1.746240 0.172020
						CHANNELS 3 Zrotation Yrotation Xrotation
						JOINT Head
						{
							OFFSET 0.104070 1.761360 -0.123970
							CHANNELS 3 Zrotation Yrotation Xrotation
							End Site
							{
								OFFSET 0.000000 0.000000 0.000000
							}
						}
					}
				}
				JOINT LeftShoulder
				{
					OFFSET 0.000000 0.000000 0.000000
					CHANNELS 3 Zrotation Yrotation Xrotation
					JOINT LeftArm
					{
						OFFSET 3.362410 1.200890 -0.311210
						CHANNELS 3 Zrotation Yrotation Xrotation
						JOINT LeftForeArm
						{
							OFFSET 4.983000 -0.000000 -0.000000
							CHANNELS 3 Zrotation Yrotation Xrotation
							JOINT LeftHand
							{
								OFFSET 3.483560 -0.000000 -0.000000
								CHANNELS 3 Zrotation Yrotation Xrotation
								JOINT LeftFingerBase
								{
									OFFSET 0.000000 0.000000 0.000000
									CHANNELS 3 Zrotation Yrotation Xrotation
									JOINT LeftHandIndex1
									{
										OFFSET 0.715260 -0.000000 -0.000000
										CHANNELS 3 Zrotation Yrotation Xrotation
										End Site
										{
											OFFSET 0.000000 0.000000 0.000000
										}
									}
								}
								JOINT LThumb
								{
									OFFSET 0.000000 0.000000 0.000000
									CHANNELS 3 Zrotation Yrotation Xrotation
									End Site
									{
										OFFSET 0.000000 0.000000 0.000000
									}
								}
							}
						}
					}
				}
				JOINT RightShoulder
				{
					OFFSET 0.000000 0.000000 0.000000
					CHANNELS 3 Zrotation Yrotation Xrotation
					JOINT RightArm
					{
						OFFSET -3.136600 1.374050 -0.404650
						CHANNELS 3 Zrotation Yrotation Xrotation
						JOINT RightForeArm
						{
							OFFSET -5.241900 -0.000000 -0.000000
							CHANNELS 3 Zrotation Yrotation Xrotation
							JOINT RightHand
							{
								OFFSET -3.444170 -0.000000 -0.000000
								CHANNELS 3 Zrotation Yrotation Xrotation
								JOINT RightFingerBase
								{
									OFFSET 0.000000 0.000000 0.000000
									CHANNELS 3 Zrotation Yrotation Xrotation
									JOINT RightHandIndex1
									{
										OFFSET -0.622530 -0.000000 -0.000000
										CHANNELS 3 Zrotation Yrotation Xrotation
										End Site
										{
											OFFSET 0.000000 0.000000 0.000000
										}
									}
								}
								JOINT RThumb
								{
									OFFSET 0.000000 0.000000 0.000000
									CHANNELS 3 Zrotation Yrotation Xrotation
									End Site
									{
										OFFSET 0.000000 0.000000 0.000000
									}
								}
							}
						}
					}
				}
			}
		}
	}
}
MOTION
Frames: 9
Frame Time: 0.033333
4.611907 16.748859 -27.276810 90.235934 -23.203287 -32.514817 -98.740062 -42.757298 64.536901 2.001117 -3.396566 -46.224950 -77.501449 65.600519 -67.693145 -16.955262 -11.351928 6.992009 0.500432 0.134672 -69.504166 38.375812 -11.785904 -109.968525 70.664356 -81.866545 -106.296585 120.655197 -39.936118 -108.541150 9.966536 -30.003757 -17.686363 0.740098 0.001046 -35.658355 -82.895921 63.415264 1.354613 165.895324 68.912994 168.903924 165.707642 67.795157 167.830168 7.772956 13.346669 11.437151 7.132447 -17.993686 -4.614777 0.223728 -0.101870 0.090764 90.666004 58.695980 -6.114054 48.329996 68.695757 -5.547798 -76.681689 37.530233 -144.460437 -38.490256 -17.416404 42.611385 28.048285 25.380594 5.649267 -0.128421 -0.156680 0.100532 0.194325 0.135923 -0.180443 39.586507 62.557612 70.931059 58.961333 13.247437 166.279758 -9.528538 -56.272378 49.977430 3.280808 -14.082445 -3.990815 -32.208499 0.064509 -174.465814 -0.183829 0.170839 -0.188710 -0.186564 -0.167101 -0.208379 
4.457268 16.864180 -26.687843 89.595632 -22.874119 -32.088626 -99.795927 -44.089508 64.485639 1.543851 -1.542161 -44.364095 -76.425844 64.206611 -66.953149 -16.877980 -10.948099 6.444593 0.691887 0.160303 -69.562239 37.011046 -11.696145 -110.194234 80.748134 -82.196492 -117.272918 121.617036 -39.217529 -105.657478 10.328429 -30.608237 -18.103722 0.520196 0.033911 -33.174509 -83.732740 64.150391 0.065067 167.984204 68.085418 170.492990 161.507006 69.082630 161.818844 11.143399 21.624310 16.569904 6.034362 -21.445894 -4.368262 0.164608 -0.090416 0.122299 92.475114 58.090558 -4.105807 43.437205 69.238718 -11.115129 -72.380488 37.120381 -140.729897 -40.797228 -18.721021 30.390307 18.216681 24.192047 -8.461958 -0.147121 -0.126017 0.161346 0.158050 0.231178 -0.185428 43.618416 62.134356 76.575083 57.278976 15.702981 165.140109 -8.836695 -56.246883 52.399151 -0.019763 -12.961618 3.910613 -29.910542 5.456843 176.572237 -0.111102 0.175692 -0.148698 -0.207025 -0.134539 -0.176999 
4.279159 16.988617 -26.124699 89.111189 -23.140537 -33.031399 -100.191420 -44.245794 62.846832 3.588148 2.352441 -42.414849 -81.227382 65.004410 -64.491846 -22.272003 -6.634677 6.799064 1.262771 0.248626 -67.830337 36.325348 -12.464206 -110.104017 84.105782 -82.161665 -121.773384 121.872380 -39.832339 -106.171328 11.485135 -30.925929 -23.232040 0.478919 -0.004906 -30.693807 -86.010508 66.380185 -1.335781 170.635069 69.625902 173.398931 168.079823 69.767278 166.257031 12.063649 20.808539 18.440442 8.050519 -20.580021 -1.580739 0.185037 -0.114662 0.122470 92.737788 57.634766 -5.251307 46.649333 69.251020 -10.292079 -72.740966 38.362649 -138.840627 -36.430910 -16.390525 24.647558 10.441758 24.298345 -17.879619 -0.162656 -0.146363 0.140080 0.183777 0.108314 -0.128763 49.899083 61.139720 81.174720 54.159246 18.331894 163.869020 -11.468350 -56.679897 57.225194 -1.505988 -7.285506 8.877412 -18.744561 11.291917 -170.607087 -0.154005 0.162669 -0.126234 -0.095592 -0.186952 -0.207472 
4.101165 17.103043 -25.590736 89.253552 -23.586046 -33.291811 -100.796598 -44.523522 62.588202 7.686296 6.960555 -41.954052 -87.312744 66.562260 -62.776457 -21.617879 -2.657755 10.846120 1.549826 0.264723 -64.305771 35.358164 -12.346022 -109.673338 78.355115 -81.147915 -118.214367 123.123694 -40.481357 -110.219882 8.985762 -32.631316 -24.335122 0.597041 -0.007276 -31.663413 -90.783810 66.304864 -4.827862 174.341217 69.610777 176.448871 168.964284 71.297784 165.973474 10.687447 16.287413 17.374577 4.356939 -19.083222 2.408652 0.157185 -0.159170 0.148149 93.430454 56.792661 -4.519564 55.627423 70.639599 -1.597202 -71.574701 38.330371 -135.848994 -41.075053 -11.640017 25.792617 10.905252 25.202272 -16.823867 -0.133200 -0.126282 0.167820 0.136413 0.141662 -0.139304 54.574740 61.813353 85.489008 52.083541 21.267858 161.524582 -15.405183 -57.690959 64.967686 -0.805436 -3.040910 9.091142 -14.549662 11.746970 -156.478397 -0.106732 0.156092 -0.102855 -0.166884 -0.131283 -0.110921 
3.935486 17.202600 -25.089479 89.216481 -24.386329 -33.366244 -100.551583 -43.947953 62.561380 12.963604 10.017809 -42.450276 -98.223990 69.579837 -67.748938 -22.760197 -0.438928 9.443690 1.585786 0.234814 -60.293304 35.941074 -11.537738 -110.013469 68.681497 -80.508976 -109.943839 123.435530 -42.013953 -113.547221 6.488134 -32.698709 -21.949494 0.837345 -0.026810 -33.371181 -93.419401 66.199505 -7.320241 175.572272 70.173218 177.943310 171.765530 72.234574 168.519474 7.228624 12.747881 14.045654 5.976488 -15.119651 7.401626 0.090754 -0.116188 0.157355 95.372125 54.943567 -3.801893 72.810627 71.092690 16.692128 -71.919048 37.588118 -135.265967 -47.653751 -8.798814 32.086564 7.798670 27.959279 -7.194213 -0.130112 -0.157857 0.105135 0.133926 0.117443 -0.108486 57.896677 62.564327 87.247948 49.404237 23.419503 158.461183 -20.913244 -57.664910 73.190199 2.277807 4.357787 5.852396 -10.603967 10.946385 -147.705535 -0.107764 0.097976 -0.114957 -0.111490 -0.112304 -0.179669 
3.771840 17.289322 -24.620636 89.603073 -25.423873 -33.933558 -99.949981 -43.259348 62.003959 18.308602 12.884289 -42.567751 -108.104180 70.829494 -72.621277 -19.542031 1.190116 6.111595 1.238131 0.186253 -56.910130 36.452019 -10.792625 -110.310495 59.177825 -78.961558 -101.745866 121.800809 -44.721047 -118.141126 1.909929 -30.751153 -17.540275 1.168133 0.019808 -35.858160 -97.925771 65.946649 -12.125288 174.338515 71.029292 176.089632 167.871970 72.507840 165.145746 6.585519 13.832050 13.332479 5.374989 -14.756685 10.986950 0.119316 -0.110992 0.122762 96.544799 52.226343 -1.526115 96.211086 70.925086 38.849118 -69.502927 37.120500 -132.689448 -59.352318 1.723373 30.037567 10.586164 31.082627 0.040345 -0.061953 -0.132249 0.087279 0.108707 0.140782 -0.092649 58.516520 63.209323 88.920657 46.258636 27.216824 155.224140 -23.005280 -56.577754 78.904134 -1.298758 7.378204 5.420527 -10.894851 12.464033 -154.726320 -0.084313 0.126668 -0.094410 -0.083914 -0.113358 -0.079328 
3.604323 17.360489 -24.170683 90.011222 -25.665525 -34.100423 -98.785277 -42.486888 60.964802 22.101285 14.758804 -43.097393 -109.348719 71.319689 -71.280213 -14.235853 2.557045 0.871892 1.217759 0.173872 -52.804616 36.986997 -11.038852 -110.777925 52.925980 -75.988641 -96.823181 120.276693 -47.388030 -122.030785 -1.668716 -28.900424 -14.746539 1.249693 0.009987 -36.283246 -101.215810 65.803195 -15.993979 173.270173 71.209656 174.496109 171.143005 73.878694 168.071390 6.563113 14.192440 13.506264 9.225587 -20.411784 7.696213 0.120136 -0.089674 0.088870 98.696017 52.292782 3.219432 112.603604 70.327648 54.181640 -68.688727 36.683067 -129.501459 -53.260635 3.527679 33.578780 3.281077 27.106989 2.985282 -0.083109 -0.121872 0.091961 0.085326 0.128208 -0.114925 59.662003 62.826618 88.815102 43.307056 32.444272 154.070731 -21.407201 -57.259770 79.368487 -1.832537 13.274815 6.489615 -7.440030 19.163637 -145.692007 -0.085575 0.057072 -0.053336 -0.079445 -0.081271 -0.146930 
3.443361 17.409586 -23.721451 89.461185 -26.048330 -33.357095 -96.658013 -43.007829 59.610912 23.122875 15.857683 -43.670950 -102.117255 71.509567 -65.630724 -10.688879 6.114062 -2.511523 1.053391 0.198023 -51.362618 37.134906 -11.853196 -112.122281 50.206746 -73.631924 -96.852618 121.968289 -50.819915 -129.026809 -4.817191 -25.781153 -11.935651 1.295413 0.037760 -37.716395 -105.370548 66.482688 -20.632443 175.294948 71.570089 176.703615 177.224691 74.804108 173.330583 5.406399 11.607852 14.174487 13.544389 -11.594268 4.659877 0.065255 -0.095180 0.104745 97.692764 51.844106 5.140822 130.696050 68.332418 71.929849 -67.129694 34.689520 -124.653909 -46.317520 2.693577 40.924267 2.039707 19.248890 1.436487 -0.080211 -0.111615 0.090906 0.070221 0.104719 -0.100640 59.451495 62.283126 87.311281 41.389581 37.399690 152.895024 -21.223870 -57.950510 80.866327 -1.103626 17.870715 10.032769 -9.342756 22.847743 -132.175935 -0.098323 0.107245 -0.079146 -0.106705 -0.071285 -0.110360 
3.298543 17.433393 -23.263878 89.870760 -26.223276 -33.713290 -94.399501 -43.170425 58.215434 22.070042 15.961029 -45.491329 -93.648928 71.876183 -63.196122 -10.057816 5.004841 -2.914559 0.947466 0.241462 -49.847483 36.698662 -13.036780 -113.490917 50.047798 -71.925807 -98.096330 122.825704 -53.517853 -133.417714 -4.811915 -22.260482 -9.540901 1.559880 -0.024815 -39.021589 -109.244746 67.323248 -24.464344 177.020968 71.272849 177.197077 173.617514 74.355398 168.483928 8.070640 10.360447 12.799111 8.620902 -7.609133 6.578560 0.127594 -0.065036 0.085571 96.396271 52.324536 8.627865 143.196753 67.856374 85.422666 -65.629504 33.190825 -119.849976 -38.454642 3.693256 46.351628 0.702127 10.413646 4.442340 -0.025686 -0.156059 0.071823 0.097419 0.085698 -0.065047 55.562899 61.339241 84.562933 40.362946 43.454135 152.274538 -25.341473 -59.370422 85.951452 -0.809362 23.381223 14.495282 -12.008236 23.787973 -116.181649 -0.053276 0.091319 -0.057427 -0.070536 -0.015383 -0.139821 
